<?xml version="1.0" standalone="no"?>
<!DOCTYPE svg PUBLIC "-//W3C//DTD SVG 20010904//EN"
 "http://www.w3.org/TR/2001/REC-SVG-20010904/DTD/svg10.dtd">
<svg version="1.0" xmlns="http://www.w3.org/2000/svg"
 width="320.000000pt" height="320.000000pt" viewBox="0 0 320.000000 320.000000"
 preserveAspectRatio="xMidYMid meet">

<g transform="translate(0.000000,320.000000) scale(0.100000,-0.100000)"
fill="#000000" stroke="none">
<path d="M208 2835 c-15 -8 -29 -23 -32 -32 -2 -10 -8 -316 -11 -681 -5 -493
-4 -670 4 -690 9 -22 47 -48 155 -110 159 -91 191 -99 225 -56 20 26 21 37 21
426 l0 400 30 30 c24 24 37 29 58 25 16 -3 135 -67 267 -143 131 -75 246 -139
256 -141 12 -3 111 48 266 138 273 157 297 165 339 115 24 -27 24 -30 24 -251
l0 -223 -310 -178 -310 -178 0 -206 c0 -117 5 -220 10 -237 9 -25 65 -60 409
-256 295 -169 403 -226 417 -221 15 6 914 519 976 557 36 23 38 51 38 483 0
353 -2 430 -15 453 -15 30 -33 41 -67 41 -34 0 -305 -160 -317 -187 -7 -15
-11 -115 -11 -273 0 -244 0 -249 -22 -273 -34 -36 -565 -337 -595 -337 -26 0
-284 141 -315 173 -23 22 -23 79 0 105 9 11 118 77 242 147 124 71 235 137
248 148 l22 20 0 684 c0 419 -4 691 -10 702 -15 29 -64 45 -92 30 -12 -7 -219
-125 -458 -262 -251 -145 -446 -250 -460 -250 -14 0 -215 109 -475 258 -247
142 -456 259 -465 261 -8 2 -27 -3 -42 -11z"/>
<path d="M2811 2766 c-180 -108 -166 -84 -166 -292 l0 -176 29 -25 c39 -33 52
-28 214 69 91 55 136 88 143 105 16 41 11 319 -6 352 -31 61 -65 56 -214 -33z"/>
</g>
</svg>
