<?xml version="1.0" standalone="no"?>
<!DOCTYPE svg PUBLIC "-//W3C//DTD SVG 20010904//EN"
 "http://www.w3.org/TR/2001/REC-SVG-20010904/DTD/svg10.dtd">
<svg version="1.0" xmlns="http://www.w3.org/2000/svg"
 width="300.000000pt" height="300.000000pt" viewBox="0 0 300.000000 300.000000"
 preserveAspectRatio="xMidYMid meet">

<g transform="translate(0.000000,300.000000) scale(0.100000,-0.100000)"
fill="#000000" stroke="none">
<path d="M1295 2949 c-480 -70 -901 -390 -1100 -836 -174 -388 -164 -847 25
-1224 92 -183 270 -397 422 -507 261 -190 538 -282 853 -283 357 -1 663 110
938 338 243 203 424 519 483 843 26 141 24 372 -5 518 -64 327 -230 612 -481
824 -204 172 -441 280 -705 323 -98 16 -332 18 -430 4z m550 -644 c119 -31
226 -114 287 -222 18 -32 46 -64 68 -78 50 -32 106 -90 137 -142 22 -39 29
-43 64 -43 59 0 143 -36 199 -87 150 -134 153 -353 8 -495 -86 -84 -233 -116
-347 -74 -24 9 -45 15 -45 14 -25 -69 -95 -146 -164 -180 -38 -19 -63 -23
-132 -23 -94 0 -147 19 -208 74 l-33 30 -45 -34 c-113 -86 -272 -81 -371 12
l-31 29 -39 -39 c-109 -114 -284 -121 -414 -18 -30 25 -42 28 -80 24 -56 -6
-158 19 -217 53 -189 111 -248 361 -130 547 60 94 175 163 292 174 61 5 67 8
72 32 51 234 208 384 440 421 75 12 186 -1 251 -30 l44 -19 52 29 c103 58 228
74 342 45z"/>
<path d="M570 1680 l0 -50 65 0 65 0 0 -145 0 -145 58 0 57 0 -3 145 -3 145
65 0 66 0 0 50 0 50 -185 0 -185 0 0 -50z"/>
<path d="M1055 1716 c-132 -58 -133 -307 -2 -367 90 -40 213 -14 255 53 32 51
28 62 -24 76 -47 13 -64 10 -64 -12 0 -36 -68 -59 -110 -36 -59 32 -48 186 16
211 34 12 81 -4 89 -32 4 -13 13 -18 23 -15 9 3 34 8 55 12 20 3 37 10 37 14
0 20 -49 77 -80 92 -42 22 -151 23 -195 4z"/>
<path d="M1377 1723 c-4 -3 -7 -91 -7 -195 l0 -188 60 0 60 0 0 70 0 70 48 0
c114 0 162 37 162 125 0 64 -24 100 -78 115 -41 11 -235 14 -245 3z m197 -89
c33 -33 6 -74 -50 -74 -34 0 -34 0 -34 45 0 45 0 45 34 45 19 0 42 -7 50 -16z"/>
<path d="M1791 1693 c-6 -21 -28 -111 -49 -200 l-39 -163 26 0 c26 0 28 3 69
178 23 97 45 187 48 200 5 19 2 22 -19 22 -22 0 -28 -6 -36 -37z"/>
<path d="M1890 1535 l0 -195 60 0 60 0 0 195 0 195 -60 0 -60 0 0 -195z"/>
<path d="M2077 1723 c-4 -3 -7 -91 -7 -195 l0 -188 60 0 60 0 0 70 0 70 48 0
c113 0 162 37 162 124 0 99 -44 126 -208 126 -60 0 -112 -3 -115 -7z m197 -89
c33 -33 6 -74 -50 -74 -34 0 -34 0 -34 45 0 45 0 45 34 45 19 0 42 -7 50 -16z"/>
</g>
</svg>
