<?xml version="1.0" encoding="UTF-8"?>
<svg xmlns="http://www.w3.org/2000/svg" xmlns:xlink="http://www.w3.org/1999/xlink" width="1080" zoomAndPan="magnify" viewBox="0 0 810 809.999993" height="1080" preserveAspectRatio="xMidYMid meet" version="1.0" style="background: transparent;"><path fill="#ff3131" d="M 368.609375 60.246094 C 355 61.457031 327.910156 66.578125 311.871094 70.757812 C 178.039062 105.796875 74.664062 215.101562 47.304688 350.414062 C 41.914062 377.371094 41.105469 386.941406 41.105469 423.867188 C 41.105469 452.171875 41.644531 463.492188 43.53125 475.082031 C 54.179688 541.527344 77.628906 596.515625 117.121094 647.59375 C 128.035156 661.746094 147.984375 683.3125 150.140625 683.3125 C 151.082031 683.3125 153.238281 681.695312 155.125 679.808594 C 156.878906 677.921875 162.808594 672.664062 168.199219 668.351562 L 178.171875 660.398438 L 186.257812 667.40625 C 235.992188 711.210938 289.902344 736.546875 356.480469 747.597656 C 377.371094 750.96875 430.742188 751.101562 452.710938 747.597656 C 472.65625 744.5 500.015625 737.492188 516.863281 731.292969 C 554.871094 717.273438 596.921875 691.800781 623.605469 666.734375 L 630.75 659.996094 L 637.082031 665.25 C 640.722656 668.082031 647.054688 673.335938 651.371094 677.113281 L 659.1875 683.714844 L 668.082031 675.089844 C 672.796875 670.371094 681.964844 660.128906 688.296875 652.3125 C 795.578125 519.558594 796.253906 330.335938 689.914062 196.097656 C 677.921875 180.734375 652.71875 155.261719 636.410156 141.917969 C 583.710938 98.386719 517.132812 69.8125 448.667969 61.324219 C 433.304688 59.4375 384.378906 58.761719 368.609375 60.246094 Z M 452.171875 111.191406 C 570.371094 129.921875 667.945312 212.40625 704.742188 324.269531 C 717.140625 361.871094 721.855469 394.488281 720.644531 433.304688 C 719.296875 473.195312 713.230469 503.789062 699.347656 539.234375 C 669.5625 615.789062 607.835938 680.347656 532.765625 713.5 C 492.066406 731.5625 451.496094 739.917969 405 739.917969 C 366.992188 739.917969 338.554688 735.46875 304.59375 724.148438 C 258.09375 708.785156 216.585938 683.042969 181.273438 647.59375 C 116.3125 582.632812 82.886719 494.492188 89.085938 403.921875 C 92.726562 348.257812 109.167969 298.394531 138.953125 252.703125 C 190.707031 173.050781 272.382812 121.835938 366.992188 109.84375 C 386.265625 107.414062 433.035156 108.089844 452.171875 111.191406 Z M 452.171875 111.191406 " fill-opacity="1" fill-rule="nonzero"/><path fill="#ff3131" d="M 234.238281 203.914062 C 208.09375 211.328125 199.332031 240.574219 217.527344 259.847656 C 224.132812 266.988281 231.140625 269.953125 243 270.628906 C 252.703125 271.167969 254.050781 270.898438 262.136719 266.988281 C 269.820312 263.214844 276.289062 257.554688 276.289062 254.726562 C 276.289062 254.1875 274.808594 253.242188 272.921875 252.839844 C 270.628906 252.300781 266.988281 253.378906 260.519531 256.882812 C 252.300781 261.195312 250.546875 261.734375 243 261.195312 C 232.21875 260.519531 224.402344 255.535156 219.820312 246.234375 C 215.101562 236.664062 216.585938 229.117188 224.804688 220.898438 C 229.65625 216.042969 232.621094 214.292969 237.878906 213.214844 C 246.640625 211.328125 254.589844 212.945312 261.597656 217.796875 C 270.496094 223.996094 272.785156 225.074219 276.019531 224.132812 C 280.0625 223.1875 279.792969 222.378906 273.59375 215.371094 C 264.5625 204.992188 247.851562 200.140625 234.238281 203.914062 Z M 234.238281 203.914062 " fill-opacity="1" fill-rule="nonzero"/><path fill="#ff3131" d="M 443.007812 206.207031 C 444.355469 211.328125 448.667969 212.945312 461.203125 212.945312 L 473.0625 212.945312 L 473.0625 238.417969 C 473.0625 262.003906 473.195312 264.023438 475.890625 267.394531 C 477.375 269.28125 479.53125 270.898438 480.609375 270.898438 C 482.226562 270.898438 482.496094 266.179688 482.496094 241.921875 L 482.496094 212.945312 L 495.300781 212.945312 C 506.351562 212.945312 508.507812 212.539062 510.796875 210.25 C 512.28125 208.765625 513.496094 206.609375 513.496094 205.53125 C 513.496094 203.78125 508.640625 203.511719 477.914062 203.511719 C 442.738281 203.511719 442.332031 203.511719 443.007812 206.207031 Z M 443.007812 206.207031 " fill-opacity="1" fill-rule="nonzero"/><path fill="#ff3131" d="M 517.539062 234.507812 C 517.539062 263.753906 517.671875 265.640625 520.234375 268.203125 C 521.714844 269.683594 523.871094 270.898438 524.949219 270.898438 C 526.703125 270.898438 526.972656 266.585938 526.972656 240.167969 C 526.972656 209.710938 526.972656 209.304688 523.871094 206.476562 C 517.671875 200.679688 517.539062 201.488281 517.539062 234.507812 Z M 517.539062 234.507812 " fill-opacity="1" fill-rule="nonzero"/><path fill="#ff3131" d="M 560.933594 204.589844 C 559.992188 205.261719 552.578125 220.222656 544.492188 238.011719 C 531.824219 265.507812 530.070312 270.222656 532.09375 270.628906 C 537.617188 271.574219 541.933594 268.335938 545.167969 260.789062 L 548.535156 253.378906 L 582.902344 253.378906 L 586.945312 261.058594 C 590.179688 267.257812 591.933594 269.144531 595.4375 270.089844 C 597.863281 270.765625 600.15625 271.035156 600.558594 270.628906 C 601.234375 269.820312 575.492188 212 571.988281 206.476562 C 569.964844 203.375 564.4375 202.433594 560.933594 204.589844 Z M 571.3125 227.097656 C 579.9375 245.5625 580.476562 243.945312 565.515625 243.945312 L 552.714844 243.945312 L 559.046875 229.792969 C 562.550781 222.109375 565.515625 215.640625 565.785156 215.640625 C 565.921875 215.640625 568.484375 220.761719 571.3125 227.097656 Z M 571.3125 227.097656 " fill-opacity="1" fill-rule="nonzero"/><path fill="#ff3131" d="M 293.136719 224.804688 C 267.664062 236.800781 276.15625 271.035156 304.726562 270.898438 C 320.898438 270.765625 331.546875 261.058594 331.546875 246.234375 C 331.546875 233.429688 321.4375 223.863281 307.152344 222.917969 C 300.550781 222.378906 297.179688 222.917969 293.136719 224.804688 Z M 311.871094 233.699219 C 324.539062 238.957031 325.347656 253.648438 313.21875 259.441406 C 303.917969 263.890625 292.597656 259.980469 288.957031 251.085938 C 287.070312 246.910156 287.207031 245.964844 289.363281 241.515625 C 291.921875 236.261719 298.796875 231.8125 304.324219 231.8125 C 305.941406 231.8125 309.308594 232.621094 311.871094 233.699219 Z M 311.871094 233.699219 " fill-opacity="1" fill-rule="nonzero"/><path fill="#ff3131" d="M 344.082031 225.074219 C 336.128906 229.925781 334.917969 233.160156 334.511719 252.972656 C 333.972656 272.515625 334.511719 273.730469 341.117188 268.335938 C 344.082031 266.046875 344.351562 264.5625 344.753906 253.109375 C 344.890625 246.234375 345.429688 239.226562 345.699219 237.742188 C 346.640625 233.699219 353.515625 231.003906 357.964844 232.890625 C 362.546875 235.046875 363.894531 239.628906 363.894531 253.511719 C 363.894531 263.753906 364.296875 265.910156 366.589844 268.203125 C 368.070312 269.683594 370.226562 270.898438 371.304688 270.898438 C 373.058594 270.898438 373.328125 268.203125 373.328125 254.1875 C 373.328125 237.609375 373.328125 237.339844 376.832031 234.644531 C 381.550781 231.003906 384.785156 231.140625 388.828125 235.183594 C 391.925781 238.148438 392.195312 239.359375 392.195312 252.03125 C 392.195312 263.753906 392.601562 265.910156 394.890625 268.203125 C 396.375 269.683594 398.53125 270.898438 399.609375 270.898438 C 402.84375 270.898438 402.574219 238.148438 399.203125 231.949219 C 394.351562 222.917969 382.761719 219.953125 372.789062 224.941406 C 367.800781 227.5 367.667969 227.5 363.488281 224.941406 C 357.964844 221.707031 349.605469 221.707031 344.082031 225.074219 Z M 344.082031 225.074219 " fill-opacity="1" fill-rule="nonzero"/><path fill="#ff3131" d="M 421.171875 224.941406 C 409.042969 230.464844 407.023438 236.125 407.023438 265.507812 C 407.023438 284.914062 407.292969 288.417969 409.042969 288.417969 C 410.121094 288.417969 412.277344 287.207031 413.761719 285.722656 C 416.1875 283.296875 416.457031 281.277344 416.457031 264.023438 C 416.457031 249.46875 416.996094 243.945312 418.613281 240.574219 C 423.734375 229.65625 441.523438 229.117188 447.859375 239.765625 C 452.171875 247.179688 449.476562 255.535156 441.523438 259.308594 C 435.863281 262.003906 431.28125 262.003906 425.214844 259.578125 C 422.789062 258.5 420.363281 257.960938 419.960938 258.5 C 418.207031 260.25 419.285156 264.429688 422.519531 267.527344 C 428.585938 273.730469 446.105469 271.035156 453.789062 262.675781 C 462.011719 253.648438 461.203125 237.203125 451.902344 228.847656 C 444.757812 222.378906 430.742188 220.492188 421.171875 224.941406 Z M 421.171875 224.941406 " fill-opacity="1" fill-rule="nonzero"/><path fill="#ff3131" d="M 458.640625 348.394531 C 452.304688 352.84375 456.347656 362.546875 464.570312 362.546875 C 469.289062 362.546875 473.464844 357.695312 472.386719 353.382812 C 471.308594 348.664062 470.5 347.988281 465.648438 347.046875 C 463.089844 346.507812 460.527344 347.046875 458.640625 348.394531 Z M 458.640625 348.394531 " fill-opacity="1" fill-rule="nonzero"/><path fill="#ff3131" d="M 189.359375 351.359375 C 176.421875 354.460938 169.414062 365.511719 172.648438 377.640625 C 174.535156 384.917969 179.117188 389.5 190.167969 395.429688 C 202.433594 401.898438 204.859375 403.921875 204.859375 407.695312 C 204.859375 415.917969 194.75 418.613281 181.273438 413.894531 C 176.960938 412.277344 172.78125 411.066406 172.242188 411.066406 C 171.703125 411.066406 171.164062 414.300781 171.164062 418.207031 C 171.164062 425.484375 171.164062 425.484375 176.285156 426.96875 C 197.445312 433.167969 216.046875 427.371094 219.683594 413.492188 C 223.1875 400.957031 218.066406 392.601562 202.164062 384.246094 C 187.335938 376.5625 184.371094 372.25 190.035156 366.589844 C 193.269531 363.355469 199.601562 363.085938 207.554688 365.914062 C 210.652344 366.992188 213.753906 367.9375 214.292969 367.9375 C 216.046875 367.9375 220.222656 357.15625 218.875 355.808594 C 215.503906 352.4375 196.773438 349.605469 189.359375 351.359375 Z M 189.359375 351.359375 " fill-opacity="1" fill-rule="nonzero"/><path fill="#ff3131" d="M 494.222656 358.097656 C 493.953125 358.773438 492.875 361.46875 492.066406 364.164062 C 490.988281 367.398438 488.832031 370.226562 485.730469 371.980469 C 479.800781 375.753906 479.261719 381.011719 484.921875 381.683594 L 488.5625 382.089844 L 489.234375 400.957031 C 489.640625 411.335938 490.449219 420.902344 491.121094 422.117188 C 493.953125 428.179688 507.023438 431.144531 517.941406 428.179688 C 521.175781 427.238281 521.582031 426.5625 521.582031 421.308594 L 521.582031 415.511719 L 514.304688 416.1875 C 504.597656 416.996094 503.789062 415.511719 504.328125 396.644531 L 504.734375 382.089844 L 513.226562 381.683594 L 521.714844 381.28125 L 521.3125 375.617188 L 520.90625 369.957031 L 512.550781 369.554688 L 504.058594 369.148438 L 504.058594 363.21875 C 504.058594 357.15625 504.058594 357.15625 499.476562 357.15625 C 496.917969 357.15625 494.492188 357.558594 494.222656 358.097656 Z M 494.222656 358.097656 " fill-opacity="1" fill-rule="nonzero"/><path fill="#ff3131" d="M 608.914062 374.269531 L 608.511719 384.785156 L 598.808594 385.1875 L 588.96875 385.59375 L 588.96875 396.238281 L 609.183594 396.238281 L 609.183594 416.457031 L 619.964844 416.457031 L 619.964844 396.238281 L 640.183594 396.238281 L 640.183594 385.457031 L 619.964844 385.457031 L 619.964844 363.894531 L 609.320312 363.894531 Z M 608.914062 374.269531 " fill-opacity="1" fill-rule="nonzero"/><path fill="#ff3131" d="M 240.84375 372.113281 C 238.148438 373.597656 234.238281 377.234375 232.082031 380.335938 C 228.714844 385.457031 228.445312 386.941406 228.445312 398.933594 C 228.445312 410.929688 228.714844 412.414062 232.21875 417.667969 C 237.472656 425.621094 245.5625 429.125 258.09375 429.125 C 263.351562 429.125 269.820312 428.449219 272.652344 427.371094 C 277.367188 425.753906 277.636719 425.484375 277.636719 419.554688 C 277.636719 414.300781 277.367188 413.625 275.347656 414.433594 C 263.621094 419.285156 251.761719 418.746094 247.042969 413.222656 C 245.292969 411.199219 243.945312 408.101562 243.945312 406.214844 L 243.945312 402.976562 L 282.085938 402.976562 L 281.277344 394.21875 C 280.0625 381.550781 275.347656 374.136719 266.449219 370.765625 C 260.117188 368.339844 246.640625 369.015625 240.84375 372.113281 Z M 262.40625 383.03125 C 263.890625 384.785156 265.640625 387.480469 266.179688 389.097656 C 266.988281 392.195312 266.855469 392.195312 255.398438 392.195312 L 243.675781 392.195312 L 244.484375 388.421875 C 246.503906 380.335938 257.015625 377.101562 262.40625 383.03125 Z M 262.40625 383.03125 " fill-opacity="1" fill-rule="nonzero"/><path fill="#ff3131" d="M 303.648438 371.84375 C 300.144531 373.460938 296.640625 376.5625 294.214844 380.203125 C 290.710938 385.59375 290.441406 386.804688 290.441406 399.609375 C 290.441406 412.144531 290.710938 413.761719 294.078125 418.746094 C 295.964844 421.710938 299.875 425.214844 302.839844 426.5625 C 309.039062 429.664062 323.59375 430.066406 329.929688 427.371094 C 333.972656 425.621094 334.242188 425.082031 334.242188 419.015625 L 334.242188 412.414062 L 329.390625 414.433594 C 326.695312 415.511719 321.84375 416.457031 318.742188 416.457031 C 313.890625 416.457031 312.273438 415.78125 309.308594 412.144531 C 305.941406 408.101562 305.671875 407.15625 306.210938 397.855469 C 306.613281 388.828125 307.019531 387.613281 310.65625 384.515625 C 314.566406 381.011719 319.550781 380.742188 328.582031 383.570312 C 331.144531 384.246094 331.816406 383.707031 333.570312 379.527344 C 336.265625 372.921875 336.265625 372.519531 331.414062 370.765625 C 324.539062 368.339844 310.117188 369.015625 303.648438 371.84375 Z M 303.648438 371.84375 " fill-opacity="1" fill-rule="nonzero"/><path fill="#ff3131" d="M 345.023438 390.445312 C 345.023438 414.570312 346.101562 420.230469 351.765625 424.945312 C 359.175781 431.144531 374 430.742188 381.144531 424.136719 C 383.839844 421.710938 384.378906 421.578125 385.457031 423.195312 C 386.132812 424.273438 386.804688 426.023438 386.804688 426.832031 C 386.804688 428.046875 388.960938 428.585938 392.871094 428.585938 L 398.933594 428.585938 L 398.933594 369.285156 L 384.109375 369.285156 L 384.109375 382.359375 C 384.109375 409.042969 381.144531 416.457031 370.496094 416.457031 C 362.007812 416.457031 361.199219 414.03125 361.199219 389.90625 L 361.199219 369.285156 L 345.023438 369.285156 Z M 345.023438 390.445312 " fill-opacity="1" fill-rule="nonzero"/><path fill="#ff3131" d="M 410.660156 370.226562 C 410.121094 370.632812 409.71875 383.976562 409.71875 399.878906 L 409.71875 428.585938 L 425.890625 428.585938 L 425.890625 411.738281 C 425.890625 388.691406 428.585938 384.109375 442.0625 384.109375 L 447.453125 384.109375 L 447.453125 369.285156 L 442.738281 369.285156 C 436.808594 369.285156 431.144531 372.113281 427.371094 376.695312 L 424.675781 380.203125 L 423.195312 374.808594 C 421.847656 369.554688 421.441406 369.285156 416.589844 369.285156 C 413.761719 369.285156 411.066406 369.6875 410.660156 370.226562 Z M 410.660156 370.226562 " fill-opacity="1" fill-rule="nonzero"/><path fill="#ff3131" d="M 456.484375 370.226562 C 455.945312 370.632812 455.539062 383.976562 455.539062 399.878906 L 455.539062 428.585938 L 471.714844 428.585938 L 471.714844 369.285156 L 464.570312 369.285156 C 460.527344 369.285156 456.886719 369.6875 456.484375 370.226562 Z M 456.484375 370.226562 " fill-opacity="1" fill-rule="nonzero"/><path fill="#ff3131" d="M 528.183594 375.617188 C 529.53125 379.257812 534.789062 392.0625 539.640625 404.324219 C 549.480469 428.585938 549.882812 432.222656 543.820312 438.019531 C 541.394531 440.3125 538.695312 441.253906 535.058594 441.390625 L 529.667969 441.390625 L 529.667969 454.191406 L 536.40625 454.191406 C 540.179688 454.191406 545.167969 453.382812 547.59375 452.304688 C 556.351562 448.53125 558.914062 443.949219 572.929688 406.886719 C 580.207031 387.34375 586.273438 370.765625 586.273438 370.226562 C 586.273438 369.6875 582.5 369.285156 577.917969 369.554688 L 569.5625 369.957031 L 563.628906 388.828125 C 556.082031 413.085938 556.351562 412.414062 555.679688 409.042969 C 555.410156 407.5625 552.308594 397.992188 549.074219 387.75 L 542.875 369.285156 L 525.625 369.285156 Z M 528.183594 375.617188 " fill-opacity="1" fill-rule="nonzero"/><path fill="#ff3131" d="M 276.964844 487.078125 C 268.605469 489.773438 263.890625 492.605469 258.632812 498.265625 C 251.222656 505.945312 248.929688 511.472656 248.257812 523.0625 C 247.71875 532.09375 248.121094 534.382812 250.953125 540.71875 C 255.128906 549.75 262.542969 557.296875 270.765625 561.203125 C 276.964844 564.035156 277.367188 564.035156 405 564.035156 L 533.035156 564.035156 L 539.773438 560.394531 C 553.925781 552.984375 561.203125 540.855469 561.203125 524.949219 C 561.203125 509.046875 553.523438 496.648438 539.371094 489.640625 L 531.6875 485.863281 L 407.023438 485.59375 C 308.90625 485.324219 281.140625 485.730469 276.964844 487.078125 Z M 531.285156 493.277344 C 544.222656 496.917969 555.273438 511.472656 555.273438 524.816406 C 555.273438 538.292969 544.222656 553.386719 532.226562 556.621094 C 528.992188 557.566406 482.496094 557.835938 402.035156 557.699219 L 276.695312 557.296875 L 270.089844 553.253906 C 262.40625 548.402344 255.535156 538.023438 254.320312 529.53125 C 252.300781 514.574219 261.867188 499.34375 276.828125 493.683594 C 282.355469 491.660156 523.871094 491.257812 531.285156 493.277344 Z M 531.285156 493.277344 " fill-opacity="1" fill-rule="nonzero"/><path fill="#ff3131" d="M 285.859375 510.257812 C 276.558594 516.863281 277.097656 536 286.9375 540.988281 C 294.886719 545.167969 305.265625 542.605469 308.367188 535.730469 C 310.523438 531.148438 310.386719 531.015625 307.558594 531.015625 C 306.210938 531.015625 303.785156 532.496094 302.167969 534.382812 C 298.527344 538.5625 292.191406 538.832031 288.417969 535.058594 C 285.050781 531.6875 284.78125 520.90625 287.878906 516.460938 C 290.980469 512.011719 299.742188 512.28125 302.707031 516.863281 C 304.59375 519.695312 309.984375 521.714844 309.984375 519.558594 C 309.984375 517.269531 305.535156 510.664062 303.378906 509.449219 C 299.335938 507.429688 289.363281 507.832031 285.859375 510.257812 Z M 285.859375 510.257812 " fill-opacity="1" fill-rule="nonzero"/><path fill="#ff3131" d="M 318.070312 525.625 L 318.070312 543.144531 L 329.527344 543.144531 C 340.039062 543.144531 340.980469 542.875 340.980469 540.449219 C 340.980469 538.023438 340.039062 537.753906 332.222656 537.753906 L 323.460938 537.753906 L 323.460938 528.320312 L 331.546875 528.320312 C 338.691406 528.320312 339.632812 528.050781 339.632812 525.625 C 339.632812 523.199219 338.691406 522.929688 331.546875 522.929688 L 323.460938 522.929688 L 323.460938 513.496094 L 331.546875 513.496094 C 338.691406 513.496094 339.632812 513.222656 339.632812 510.796875 C 339.632812 508.371094 338.691406 508.101562 328.851562 508.101562 L 318.070312 508.101562 Z M 318.070312 525.625 " fill-opacity="1" fill-rule="nonzero"/><path fill="#ff3131" d="M 347.71875 525.625 C 347.71875 542.203125 347.855469 543.144531 350.414062 543.144531 C 352.707031 543.144531 353.113281 542.203125 353.113281 536.40625 C 353.113281 530.070312 353.382812 529.667969 356.480469 529.667969 C 359.175781 529.667969 360.660156 531.148438 363.625 536.40625 C 366.320312 541.394531 368.070312 543.144531 370.363281 543.144531 C 374.136719 543.144531 374.136719 542.875 369.824219 535.730469 L 366.453125 529.800781 L 369.148438 527.105469 C 371.035156 525.21875 371.980469 522.523438 371.980469 519.019531 C 371.980469 511.203125 367.53125 508.101562 356.347656 508.101562 L 347.71875 508.101562 Z M 365.242188 515.515625 C 369.148438 520.234375 364.433594 525.488281 356.210938 525.625 C 353.382812 525.625 353.113281 524.949219 353.113281 519.558594 L 353.113281 513.496094 L 358.367188 513.496094 C 361.332031 513.496094 364.296875 514.304688 365.242188 515.515625 Z M 365.242188 515.515625 " fill-opacity="1" fill-rule="nonzero"/><path fill="#ff3131" d="M 378.71875 510.796875 C 378.71875 513.089844 379.664062 513.496094 384.109375 513.496094 L 389.5 513.496094 L 389.5 528.320312 C 389.5 542.203125 389.636719 543.144531 392.195312 543.144531 C 394.757812 543.144531 394.890625 542.203125 394.890625 528.320312 L 394.890625 513.496094 L 400.28125 513.496094 C 404.730469 513.496094 405.675781 513.089844 405.675781 510.796875 C 405.675781 508.238281 404.730469 508.101562 392.195312 508.101562 C 379.664062 508.101562 378.71875 508.238281 378.71875 510.796875 Z M 378.71875 510.796875 " fill-opacity="1" fill-rule="nonzero"/><path fill="#ff3131" d="M 413.761719 525.625 C 413.761719 542.203125 413.894531 543.144531 416.457031 543.144531 C 419.015625 543.144531 419.152344 542.203125 419.152344 525.625 C 419.152344 509.046875 419.015625 508.101562 416.457031 508.101562 C 413.894531 508.101562 413.761719 509.046875 413.761719 525.625 Z M 413.761719 525.625 " fill-opacity="1" fill-rule="nonzero"/><path fill="#ff3131" d="M 427.238281 525.625 C 427.238281 542.203125 427.371094 543.144531 429.933594 543.144531 C 432.359375 543.144531 432.628906 542.203125 432.628906 535.730469 L 432.628906 528.320312 L 440.042969 528.320312 C 446.511719 528.320312 447.453125 528.050781 447.453125 525.625 C 447.453125 523.199219 446.511719 522.929688 440.042969 522.929688 L 432.628906 522.929688 L 432.628906 513.496094 L 440.714844 513.496094 C 447.859375 513.496094 448.800781 513.222656 448.800781 510.796875 C 448.800781 508.371094 447.859375 508.101562 438.019531 508.101562 L 427.238281 508.101562 Z M 427.238281 525.625 " fill-opacity="1" fill-rule="nonzero"/><path fill="#ff3131" d="M 456.886719 525.625 C 456.886719 542.203125 457.023438 543.144531 459.585938 543.144531 C 462.144531 543.144531 462.28125 542.203125 462.28125 525.625 C 462.28125 509.046875 462.144531 508.101562 459.585938 508.101562 C 457.023438 508.101562 456.886719 509.046875 456.886719 525.625 Z M 456.886719 525.625 " fill-opacity="1" fill-rule="nonzero"/><path fill="#ff3131" d="M 471.714844 525.625 L 471.714844 543.144531 L 483.167969 543.144531 C 493.683594 543.144531 494.625 542.875 494.625 540.449219 C 494.625 538.023438 493.683594 537.753906 485.863281 537.753906 L 477.105469 537.753906 L 477.105469 528.320312 L 485.191406 528.320312 C 492.335938 528.320312 493.277344 528.050781 493.277344 525.625 C 493.277344 523.199219 492.335938 522.929688 485.191406 522.929688 L 477.105469 522.929688 L 477.105469 513.496094 L 485.191406 513.496094 C 492.335938 513.496094 493.277344 513.222656 493.277344 510.796875 C 493.277344 508.371094 492.335938 508.101562 482.496094 508.101562 L 471.714844 508.101562 Z M 471.714844 525.625 " fill-opacity="1" fill-rule="nonzero"/><path fill="#ff3131" d="M 501.363281 525.625 L 501.363281 543.144531 L 508.910156 543.144531 C 513.089844 543.144531 518.480469 542.203125 520.90625 540.988281 C 528.722656 537.347656 531.824219 526.566406 527.78125 516.863281 C 525.21875 510.796875 519.558594 508.101562 509.449219 508.101562 L 501.363281 508.101562 Z M 519.828125 515.515625 C 525.355469 519.425781 524.679688 533.304688 518.886719 536.40625 C 517.539062 537.214844 514.167969 537.753906 511.605469 537.753906 L 506.753906 537.753906 L 506.753906 513.496094 L 511.875 513.496094 C 514.707031 513.496094 518.210938 514.4375 519.828125 515.515625 Z M 519.828125 515.515625 " fill-opacity="1" fill-rule="nonzero"/><path fill="#ff3131" d="M 477.375 609.453125 C 477.644531 611.476562 478.722656 612.554688 480.472656 612.554688 C 484.515625 612.554688 484.113281 607.296875 480.070312 606.757812 C 477.375 606.355469 476.96875 606.757812 477.375 609.453125 Z M 477.375 609.453125 " fill-opacity="1" fill-rule="nonzero"/><path fill="#ff3131" d="M 264.160156 627.378906 L 264.160156 646.921875 L 267.527344 646.921875 C 270.628906 646.921875 270.898438 646.515625 270.898438 640.183594 L 270.898438 633.445312 L 276.695312 633.445312 C 287.476562 633.445312 293.539062 627.109375 291.789062 617.808594 C 290.574219 610.9375 284.78125 607.835938 273.324219 607.835938 L 264.160156 607.835938 Z M 283.296875 615.519531 C 288.824219 620.503906 284.511719 628.054688 276.019531 628.054688 L 270.898438 628.054688 L 270.898438 613.226562 L 275.886719 613.226562 C 278.582031 613.226562 281.949219 614.171875 283.296875 615.519531 Z M 283.296875 615.519531 " fill-opacity="1" fill-rule="nonzero"/><path fill="#ff3131" d="M 299.203125 627.378906 C 299.203125 645.976562 299.335938 646.921875 301.898438 646.921875 C 304.457031 646.921875 304.59375 645.976562 304.59375 627.378906 C 304.59375 608.78125 304.457031 607.835938 301.898438 607.835938 C 299.335938 607.835938 299.203125 608.78125 299.203125 627.378906 Z M 299.203125 627.378906 " fill-opacity="1" fill-rule="nonzero"/><path fill="#ff3131" d="M 395.566406 609.453125 C 391.386719 611.609375 389.5 614.710938 389.5 618.886719 C 389.5 623.742188 393.140625 626.839844 401.898438 629.402344 C 405.675781 630.613281 409.449219 632.5 410.257812 633.847656 C 414.164062 639.914062 401.898438 644.496094 396.375 638.96875 C 393.410156 636.003906 388.152344 635.195312 388.152344 637.621094 C 388.152344 638.429688 389.90625 640.855469 392.0625 643.011719 C 395.296875 646.113281 397.183594 646.921875 402.167969 646.921875 C 409.71875 646.921875 414.433594 644.898438 416.320312 640.585938 C 419.960938 632.769531 417.265625 628.863281 405.675781 624.820312 C 396.644531 621.71875 394.488281 619.023438 397.585938 615.25 C 400.148438 612.148438 407.964844 612.6875 409.988281 615.921875 C 412.144531 619.425781 416.457031 619.425781 416.457031 616.058594 C 416.457031 609.589844 402.976562 605.410156 395.566406 609.453125 Z M 395.566406 609.453125 " fill-opacity="1" fill-rule="nonzero"/><path fill="#ff3131" d="M 350.011719 619.292969 C 346.777344 621.179688 346.238281 622.257812 346.640625 626.4375 C 347.046875 631.152344 347.316406 631.558594 354.863281 633.984375 C 360.523438 635.871094 362.546875 637.082031 362.546875 638.96875 C 362.546875 642.472656 356.480469 643.820312 353.246094 640.992188 C 350.820312 638.835938 345.023438 638.027344 345.023438 639.777344 C 345.160156 648.675781 366.589844 649.214844 368.878906 640.453125 C 370.09375 635.734375 367.9375 633.039062 361.0625 630.75 C 351.089844 627.246094 349.472656 625.359375 354.59375 622.664062 C 356.75 621.449219 358.097656 621.585938 360.660156 623.335938 C 362.546875 624.550781 365.242188 625.359375 366.859375 625.089844 C 369.554688 624.683594 369.554688 624.683594 367.128906 621.585938 C 363.757812 617.539062 355.269531 616.460938 350.011719 619.292969 Z M 350.011719 619.292969 " fill-opacity="1" fill-rule="nonzero"/><path fill="#ff3131" d="M 429.796875 619.292969 C 422.117188 623.472656 421.039062 638.027344 427.910156 643.820312 C 433.976562 649.078125 448.800781 646.921875 448.800781 640.722656 C 448.800781 638.160156 445.835938 638.296875 440.984375 641.125 C 437.210938 643.28125 436.808594 643.28125 433.4375 641.125 C 431.550781 639.777344 429.933594 637.621094 429.933594 636.140625 C 429.933594 633.714844 430.875 633.445312 440.042969 633.445312 C 451.09375 633.445312 451.363281 633.175781 448.667969 625.492188 C 446.105469 618.214844 437.078125 615.25 429.796875 619.292969 Z M 441.792969 624.28125 C 445.296875 627.785156 443.546875 629.402344 436.671875 629.402344 C 432.089844 629.402344 429.933594 628.863281 429.933594 627.648438 C 429.933594 624.820312 432.898438 622.664062 436.671875 622.664062 C 438.558594 622.664062 440.851562 623.335938 441.792969 624.28125 Z M 441.792969 624.28125 " fill-opacity="1" fill-rule="nonzero"/><path fill="#ff3131" d="M 464.167969 619.5625 C 462.414062 621.316406 461.605469 621.449219 461.203125 620.234375 C 460.933594 619.425781 459.585938 618.617188 458.101562 618.617188 C 455.675781 618.617188 455.539062 619.695312 455.539062 632.769531 C 455.539062 645.976562 455.675781 646.921875 458.234375 646.921875 C 460.664062 646.921875 460.933594 645.976562 460.933594 638.96875 C 460.933594 628.054688 462.550781 624.144531 467.671875 623.203125 C 470.5 622.527344 471.714844 621.585938 471.714844 619.832031 C 471.714844 616.597656 467.402344 616.460938 464.167969 619.5625 Z M 464.167969 619.5625 " fill-opacity="1" fill-rule="nonzero"/><path fill="#ff3131" d="M 497.1875 619.292969 C 489.503906 623.472656 488.425781 638.027344 495.300781 643.820312 C 501.363281 649.078125 516.191406 646.921875 516.191406 640.722656 C 516.191406 638.160156 513.226562 638.296875 508.371094 641.125 C 504.597656 643.28125 504.195312 643.28125 500.824219 641.125 C 498.9375 639.777344 497.320312 637.621094 497.320312 636.140625 C 497.320312 633.714844 498.265625 633.445312 507.429688 633.445312 C 518.480469 633.445312 518.75 633.175781 516.054688 625.492188 C 513.496094 618.214844 504.464844 615.25 497.1875 619.292969 Z M 509.179688 624.28125 C 512.683594 627.785156 510.933594 629.402344 504.058594 629.402344 C 499.476562 629.402344 497.320312 628.863281 497.320312 627.648438 C 497.320312 624.820312 500.285156 622.664062 504.058594 622.664062 C 505.945312 622.664062 508.238281 623.335938 509.179688 624.28125 Z M 509.179688 624.28125 " fill-opacity="1" fill-rule="nonzero"/><path fill="#ff3131" d="M 526.566406 619.292969 C 523.332031 621.179688 522.792969 622.257812 523.199219 626.4375 C 523.601562 631.152344 523.871094 631.558594 531.417969 633.984375 C 537.078125 635.871094 539.101562 637.082031 539.101562 638.96875 C 539.101562 642.472656 533.035156 643.820312 529.800781 640.992188 C 527.375 638.835938 521.582031 638.027344 521.582031 639.777344 C 521.714844 648.675781 543.144531 649.214844 545.4375 640.453125 C 546.648438 635.734375 544.492188 633.039062 537.617188 630.75 C 527.644531 627.246094 526.027344 625.359375 531.148438 622.664062 C 533.304688 621.449219 534.652344 621.585938 537.214844 623.335938 C 539.101562 624.550781 541.796875 625.359375 543.414062 625.089844 C 546.109375 624.683594 546.109375 624.683594 543.683594 621.585938 C 540.316406 617.539062 531.824219 616.460938 526.566406 619.292969 Z M 526.566406 619.292969 " fill-opacity="1" fill-rule="nonzero"/><path fill="#ff3131" d="M 312.679688 630.074219 C 312.679688 639.777344 313.082031 641.933594 315.375 644.226562 C 319.011719 647.863281 325.347656 647.730469 328.851562 643.957031 L 331.546875 640.992188 L 331.546875 643.957031 C 331.546875 645.976562 332.355469 646.921875 334.242188 646.921875 C 336.804688 646.921875 336.9375 645.976562 336.9375 632.769531 C 336.9375 619.5625 336.804688 618.617188 334.242188 618.617188 C 331.816406 618.617188 331.546875 619.5625 331.546875 627.785156 C 331.546875 635.0625 331.007812 637.488281 329.121094 639.238281 C 322.921875 644.898438 318.070312 639.644531 318.070312 627.109375 C 318.070312 619.5625 317.800781 618.617188 315.375 618.617188 C 312.949219 618.617188 312.679688 619.5625 312.679688 630.074219 Z M 312.679688 630.074219 " fill-opacity="1" fill-rule="nonzero"/><path fill="#ff3131" d="M 477.105469 632.769531 C 477.105469 645.976562 477.238281 646.921875 479.800781 646.921875 C 482.359375 646.921875 482.496094 645.976562 482.496094 632.769531 C 482.496094 619.5625 482.359375 618.617188 479.800781 618.617188 C 477.238281 618.617188 477.105469 619.5625 477.105469 632.769531 Z M 477.105469 632.769531 " fill-opacity="1" fill-rule="nonzero"/></svg>