<svg xmlns="http://www.w3.org/2000/svg" version="1.0" width="1200.000000pt" height="1027.000000pt" viewBox="0 0 1200.000000 1027.000000" preserveAspectRatio="xMidYMid meet">

<g transform="translate(0.000000,1027.000000) scale(0.100000,-0.100000)" fill="#03a9f4" stroke="none">
<path d="M10 10243 c5 -16 592 -2084 1305 -4598 713 -2513 1308 -4603 1322 -4645 60 -174 146 -325 272 -474 203 -242 521 -425 854 -493 73 -15 209 -17 1279 -20 l1197 -4 10 38 c6 21 222 767 480 1658 l469 1620 1701 3 1701 2 0 -940 c0 -927 0 -940 -20 -960 -20 -20 -33 -20 -1248 -20 l-1229 0 -198 -682 c-108 -376 -200 -691 -203 -701 -4 -17 60 -18 1499 -14 1645 4 1538 0 1754 62 118 34 292 118 407 197 105 71 269 229 345 332 135 183 220 379 270 626 15 78 17 226 20 1793 l4 1707 -2929 0 -2928 0 -480 -1657 -479 -1658 -609 0 -609 0 -1053 3715 c-579 2043 -1054 3721 -1054 3728 0 9 152 12 730 12 l729 0 14 -47 c8 -27 182 -641 388 -1365 l373 -1318 726 0 727 0 -586 2065 -586 2065 -2187 0 -2187 0 9 -27z" fill="#03a9f4"/>
</g>
</svg>