<svg xmlns="http://www.w3.org/2000/svg" version="1.0" width="512.000000pt" height="512.000000pt" viewBox="0 0 512.000000 512.000000" preserveAspectRatio="xMidYMid meet">

<g transform="translate(0.000000,512.000000) scale(0.100000,-0.100000)" fill="#a83fb5" stroke="none">
<path d="M0 2560 l0 -2560 2560 0 2560 0 0 2560 0 2560 -2560 0 -2560 0 0 -2560z m2797 1744 c248 -57 701 -171 1073 -269 412 -110 417 -111 424 -138 13 -50 18 -372 7 -532 -27 -406 -112 -915 -207 -1246 -176 -613 -636 -1157 -1232 -1457 -75 -38 -170 -82 -211 -98 l-73 -28 -67 23 c-184 63 -470 230 -666 388 -120 97 -306 286 -397 404 -141 181 -264 402 -343 614 -91 243 -192 742 -242 1185 -23 212 -26 742 -3 763 16 14 77 32 515 147 248 66 874 222 1075 268 47 11 100 20 117 21 18 1 122 -19 230 -45z" fill="#a83fb5"/>
<path d="M1060 3368 c0 -7 83 -281 184 -608 l183 -595 109 0 109 0 187 600 c102 330 187 603 187 608 1 4 -47 7 -106 7 l-108 0 -130 -460 c-71 -252 -133 -456 -136 -452 -3 4 -57 187 -118 407 -62 220 -119 424 -128 453 l-14 52 -110 0 c-81 0 -109 -3 -109 -12z" fill="#a83fb5"/>
<path d="M2140 2771 l0 -611 105 0 105 0 0 175 0 175 103 0 c189 0 279 30 360 120 55 61 82 129 97 243 30 227 -54 414 -215 477 -56 22 -77 24 -307 28 l-248 4 0 -611z m490 358 c60 -34 85 -88 85 -184 -1 -85 -14 -122 -57 -162 -38 -35 -73 -43 -194 -43 l-114 0 0 205 0 205 121 0 c105 0 126 -3 159 -21z" fill="#a83fb5"/>
<path d="M3060 2770 l0 -610 100 0 100 0 2 390 3 390 230 -390 230 -389 98 -1 97 0 0 610 0 610 -100 0 -100 0 0 -392 c0 -331 -2 -390 -14 -378 -7 8 -114 185 -236 393 l-223 377 -94 0 -93 0 0 -610z" fill="#a83fb5"/>
</g>
</svg>