<?xml version="1.0" standalone="no"?>
<!DOCTYPE svg PUBLIC "-//W3C//DTD SVG 20010904//EN"
 "http://www.w3.org/TR/2001/REC-SVG-20010904/DTD/svg10.dtd">
<svg version="1.0" xmlns="http://www.w3.org/2000/svg"
 width="512.000000pt" height="512.000000pt" viewBox="0 0 512.000000 512.000000"
 preserveAspectRatio="xMidYMid meet">

<g transform="translate(0.000000,512.000000) scale(0.100000,-0.100000)"
fill="#000000" stroke="none">
<path d="M3750 2250 c0 -18 7 -20 85 -20 78 0 85 2 85 20 0 18 -7 20 -85 20
-78 0 -85 -2 -85 -20z"/>
<path d="M4080 2255 c0 -13 49 -15 384 -15 332 0 385 2 390 15 5 13 -42 15
-384 15 -340 0 -390 -2 -390 -15z"/>
<path d="M2520 2238 c0 -21 1 -21 158 -15 86 4 226 7 310 7 128 0 152 2 152
15 0 13 -41 15 -310 15 l-310 0 0 -22z"/>
<path d="M3310 2245 c0 -12 17 -15 101 -15 76 0 100 3 97 13 -3 8 -35 13 -101
15 -82 2 -97 0 -97 -13z"/>
<path d="M1200 2229 l0 -22 228 8 c125 4 229 8 231 10 1 2 0 8 -4 14 -4 7 -82
11 -231 11 -222 0 -224 0 -224 -21z"/>
<path d="M1906 2235 c-5 -13 24 -15 219 -15 193 0 225 2 225 15 0 23 -435 23
-444 0z"/>
<path d="M270 2225 c0 -13 49 -15 385 -15 336 0 385 2 385 15 0 13 -49 15
-385 15 -336 0 -385 -2 -385 -15z"/>
<path d="M4093 2223 c-10 -3 -13 -64 -13 -252 0 -246 0 -248 -23 -269 l-23
-22 -1475 0 -1476 0 -21 23 c-21 23 -22 31 -22 260 l0 237 -384 0 -384 0 14
-72 c136 -713 604 -1328 1249 -1644 155 -75 258 -114 424 -160 357 -98 767
-104 1136 -17 877 206 1555 910 1735 1800 11 55 20 106 20 112 0 8 -109 11
-372 10 -205 0 -379 -3 -385 -6z"/>
<path d="M2668 2213 l-148 -4 0 -32 c-1 -91 -90 -137 -150 -77 -14 14 -20 34
-20 65 l0 45 -229 0 -228 0 -18 -47 c-22 -60 -40 -80 -75 -88 -48 -10 -84 16
-110 81 l-23 57 -105 -7 c-58 -3 -163 -6 -234 -6 l-128 0 0 -180 0 -180 1360
0 1360 0 0 190 0 190 -84 0 -83 0 -5 -50 c-6 -57 -27 -86 -68 -95 -44 -10 -81
16 -120 84 l-35 61 -107 0 -108 0 0 -47 c0 -27 -6 -55 -13 -64 -56 -73 -157
-29 -157 67 l0 44 -162 -2 c-90 -1 -229 -4 -310 -5z"/>
</g>
</svg>
