<?xml version="1.0" standalone="no"?>
<!DOCTYPE svg PUBLIC "-//W3C//DTD SVG 20010904//EN"
 "http://www.w3.org/TR/2001/REC-SVG-20010904/DTD/svg10.dtd">
<svg version="1.0" xmlns="http://www.w3.org/2000/svg"
 width="500.000000pt" height="500.000000pt" viewBox="0 0 500.000000 500.000000"
 preserveAspectRatio="xMidYMid meet">

<g transform="translate(0.000000,500.000000) scale(0.100000,-0.100000)"
fill="#000000" stroke="none">
<path d="M1300 3722 c0 -21 7 -32 25 -40 14 -7 30 -23 35 -38 11 -28 14 -1572
4 -1612 -4 -12 -19 -29 -35 -38 -20 -10 -29 -22 -29 -39 l0 -25 488 2 487 3 3
200 c3 235 0 268 -30 263 -14 -2 -25 -17 -35 -48 -18 -53 -63 -104 -118 -132
-50 -26 -165 -37 -322 -30 l-43 2 0 290 0 290 79 0 c47 0 93 -6 114 -15 40
-16 77 -58 77 -86 0 -12 7 -19 20 -19 20 0 20 5 18 223 -3 239 -7 251 -50 188
-13 -19 -34 -43 -49 -53 -28 -21 -137 -40 -180 -31 l-29 6 0 263 0 264 170 0
c154 0 175 -2 216 -22 45 -21 104 -92 104 -125 0 -8 12 -13 30 -13 l30 0 -2
198 -3 197 -487 3 -488 2 0 -28z"/>
<path d="M2435 3728 c-3 -7 -4 -582 -3 -1278 l3 -1265 21 -3 21 -3 7 418 c8
475 7 1600 -1 1926 -5 205 -7 217 -25 217 -10 0 -21 -6 -23 -12z"/>
<path d="M2554 3281 c-8 -9 -4 -51 6 -51 6 0 19 -9 30 -20 20 -20 20 -33 20
-975 l0 -956 -30 -17 c-21 -11 -30 -24 -28 -37 3 -19 12 -20 244 -23 241 -2
242 -2 247 20 8 28 1 38 -27 38 -13 0 -31 9 -42 21 -18 20 -19 41 -19 373 l0
351 195 5 c174 5 202 8 255 29 218 86 354 273 386 528 26 210 -31 411 -154
541 -47 49 -147 110 -229 140 l-73 27 -388 5 c-214 3 -391 3 -393 1z m563
-180 c170 -20 294 -138 337 -321 54 -228 -43 -451 -234 -542 -56 -27 -79 -32
-167 -36 l-103 -5 0 450 c0 247 3 453 7 456 8 9 71 8 160 -2z"/>
</g>
</svg>
