<?xml version="1.0" standalone="no"?>
<!DOCTYPE svg PUBLIC "-//W3C//DTD SVG 20010904//EN"
 "http://www.w3.org/TR/2001/REC-SVG-20010904/DTD/svg10.dtd">
<svg version="1.0" xmlns="http://www.w3.org/2000/svg"
 width="1024.000000pt" height="1024.000000pt" viewBox="0 0 1024.000000 1024.000000"
 preserveAspectRatio="xMidYMid meet">

<g transform="translate(0.000000,1024.000000) scale(0.100000,-0.100000)"
fill="#000000" stroke="none">
<path d="M2660 7615 l0 -64 38 -11 c46 -12 69 -35 88 -87 20 -57 20 -3229 0
-3286 -20 -54 -43 -76 -93 -89 l-43 -10 0 -58 c0 -47 3 -58 18 -61 9 -2 464
-3 1010 -1 l992 3 0 427 c0 235 -3 451 -6 480 l-7 52 -52 0 -52 0 -16 -66
c-33 -132 -108 -224 -234 -287 -123 -62 -168 -69 -475 -74 l-278 -5 0 592 0
592 178 -4 c169 -3 179 -4 228 -30 66 -35 117 -92 133 -150 13 -47 27 -58 79
-58 l23 0 -3 454 c-2 250 -5 456 -8 459 -3 2 -21 7 -41 11 -36 6 -36 6 -54
-41 -53 -139 -192 -202 -447 -203 l-88 0 0 540 0 540 320 0 c198 0 339 -4 372
-11 143 -31 253 -130 293 -264 l12 -40 62 -3 61 -3 0 411 0 410 -1005 0 -1005
0 0 -65z"/>
<path d="M4980 5041 l0 -2631 53 0 54 0 4 758 c3 416 2 1599 -1 2627 l-5 1870
-52 3 -53 3 0 -2630z"/>
<path d="M5210 6670 c0 -50 3 -60 18 -60 31 0 83 -40 100 -78 16 -34 17 -179
20 -1941 3 -1752 2 -1908 -13 -1948 -17 -45 -54 -73 -95 -73 -18 0 -20 -6 -20
-60 l0 -60 510 0 510 0 0 58 0 58 -58 12 c-59 12 -85 31 -113 82 -11 20 -15
155 -17 733 l-3 707 319 0 c351 0 422 7 572 58 192 65 393 197 510 334 221
258 330 575 330 956 0 328 -57 537 -205 762 -160 241 -384 395 -692 475 -149
39 -275 45 -1000 45 l-673 0 0 -60z m1250 -336 c222 -45 436 -213 536 -420 75
-157 115 -408 95 -597 -16 -145 -33 -206 -90 -322 -90 -182 -225 -321 -386
-400 -115 -56 -208 -75 -397 -82 l-168 -6 0 928 0 928 168 -7 c92 -4 201 -14
242 -22z"/>
</g>
</svg>
